<svg xmlns="http://www.w3.org/2000/svg" viewBox="0 0 96 96" role="img" aria-labelledby="title">
<title id="title">Respaldo de datos</title>

<style>
  .line { stroke:#3D3A36; stroke-width:4; stroke-linecap:round; stroke-linejoin:round; }
  .thin { stroke:#3D3A36; stroke-width:3; stroke-linecap:round; stroke-linejoin:round; }
  .green { fill:#72C96B; }
  .green2 { fill:#A7E29F; }
  .soil { fill:#B9855A; }
  .blue { fill:#67C9E8; }
  .blue2 { fill:#A9E6F6; }
  .yellow { fill:#FFD45E; }
  .orange { fill:#F6A65B; }
  .red { fill:#F27979; }
  .pink { fill:#F6A6BC; }
  .purple { fill:#A88BE0; }
  .cream { fill:#FFF7E8; }
  .white { fill:#FFFFFF; }
  .none { fill:none; }
  @media (prefers-reduced-motion: reduce) {
    * { animation: none !important; }
  }
</style>


<g>
  <ellipse cx="38" cy="28" rx="18" ry="8" class="blue2 line"/>
  <path class="blue line" d="M20 28v26c0 4 8 8 18 8s18-4 18-8V28"/>
  <path class="thin none" d="M20 41c0 4 8 8 18 8s18-4 18-8"/>
  <path class="thin none" d="M20 52c0 4 8 8 18 8s18-4 18-8"/>
</g>
<g transform-origin="67px 48px">
  <animateTransform attributeName="transform" type="scale" values="1;1.05;1" dur="1.8s" repeatCount="indefinite"/>
  <path class="green2 line" d="M67 22l14 6v11c0 10-7 18-14 22-7-4-14-12-14-22V28z"/>
  <path class="white line" d="M67 33v15M60 42h14" fill="none" stroke="#fff"/>
</g>
<g class="yellow">
  <circle cx="73" cy="67" r="2"><animate attributeName="r" values="1;3;1" dur="1.4s" repeatCount="indefinite"/></circle>
  <circle cx="83" cy="59" r="2"><animate attributeName="r" values="1;2.5;1" dur="1.7s" repeatCount="indefinite"/></circle>
</g>

</svg>
